# xmcd
#
# Track frame offsets:
# 150
# 19117
# 35825
# 46864
# 71097
# 84530
# 102185
# 114867
# 131932
# 158862
# 175625
# 184084
# 196807
# 222782
#
# Disc length: 3125 seconds
#
#
# Revision: 2
# Processed by: cddbd v1.5.2PL0 Copyright (c) Steve Scherf et al.
# Submitted via: FreeRIP 2.945 
#
DISCID=bb0c330e
DTITLE=Dominguinhos - Dominguinhos e Convidados cantam Luiz Gonzaga vol. 1
DYEAR=1900
DGENRE=Forro
TTITLE0=A vida do viajante
TTITLE1=Tacaca
TTITLE2=Qui nem gilo
TTITLE3=De Terezina a Sao Luis
TTITLE4=Numa sala de reboco
TTITLE5=Suplica Cearense
TTITLE6=Nao vendo nem troco
TTITLE7=A volta da Asa Branca
TTITLE8=Assum preto
TTITLE9=Vozes da seca
TTITLE10=No meu pe de serra
TTITLE11=Nem se despediu de mim
TTITLE12=Legua tirana
TTITLE13=Estrela de ouro
EXTD=
EXTT0=Part. Chico Buarque
EXTT1=Part. Joquinha Gonzaga
EXTT2=Part. Tania Alves
EXTT3=Part. Fagner
EXTT4=Part. Quinteto Violado
EXTT5=Part. Guadalupe
EXTT6=Part. Ze Ramalho
EXTT7=Part. Maciel Melo
EXTT8=Part. Ivan Lins
EXTT9=Part. Elba Ramalho
EXTT10=Part. Flavio Jose
EXTT11=Part. Jorge de Altinho
EXTT12=Part. Alceu Valenca
EXTT13=Part. Dio de Araujo
PLAYORDER=
